<svg width="44" height="36" viewBox="0 0 44 36" fill="none" xmlns="http://www.w3.org/2000/svg">
<path d="M43.335 4.16833C41.74 4.87667 40.0267 5.35333 38.2283 5.56833C40.065 4.46833 41.4733 2.72667 42.1367 0.650001C40.42 1.66833 38.5167 2.40833 36.49 2.80833C34.8683 1.08 32.5583 0 30.0017 0C25.0917 0 21.1117 3.98167 21.1117 8.89C21.1117 9.58667 21.1917 10.2667 21.3417 10.915C13.9533 10.545 7.40333 7.005 3.01667 1.625C2.25333 2.93833 1.815 4.465 1.815 6.09667C1.815 9.18 3.38333 11.9017 5.76833 13.495C4.31167 13.4483 2.94 13.0483 1.74167 12.3833C1.74167 12.4217 1.74167 12.4567 1.74167 12.495C1.74167 16.8033 4.805 20.3967 8.87333 21.2117C8.12833 21.415 7.34167 21.5233 6.53 21.5233C5.95833 21.5233 5.4 21.4667 4.85833 21.365C5.99 24.8967 9.27333 27.4683 13.1633 27.54C10.1217 29.925 6.28833 31.3467 2.12167 31.3467C1.405 31.3467 0.696667 31.305 0 31.2217C3.935 33.7433 8.60667 35.215 13.6283 35.215C29.9817 35.215 38.9217 21.6683 38.9217 9.92C38.9217 9.535 38.9133 9.15167 38.8967 8.77C40.635 7.515 42.1433 5.95 43.335 4.16833Z" fill="#5686E1"/>
</svg>
